<svg xmlns="http://www.w3.org/2000/svg" viewBox="0 0 700 352" width="100%" role="img" aria-label="Effect of enzymes on reaction rate"><title>Effect of enzymes on reaction rate</title><rect width="700" height="352" fill="#ffffff"/><text x="60" y="26" font-family="'Titillium Web',-apple-system,Segoe UI,Roboto,sans-serif" font-size="16" font-weight="700" fill="#0d2233">Effect of enzymes on reaction rate</text><line x1="60" y1="48" x2="86" y2="48" stroke="#1781A1" stroke-width="3" stroke-linecap="round"/><text x="93" y="52" font-family="'Titillium Web',-apple-system,Segoe UI,Roboto,sans-serif" font-size="13" fill="#5a7183">With enzyme</text><line x1="210" y1="48" x2="236" y2="48" stroke="#C2622A" stroke-width="3" stroke-dasharray="7 5" stroke-linecap="round"/><text x="243" y="52" font-family="'Titillium Web',-apple-system,Segoe UI,Roboto,sans-serif" font-size="13" fill="#5a7183">Without enzyme</text><line x1="60" y1="300.0" x2="660" y2="300.0" stroke="#e3edf2" stroke-width="1"/><text x="50" y="304.0" font-family="'Titillium Web',-apple-system,Segoe UI,Roboto,sans-serif" font-size="12" fill="#5a7183" text-anchor="end">0</text><line x1="60" y1="248.9" x2="660" y2="248.9" stroke="#e3edf2" stroke-width="1"/><text x="50" y="252.9" font-family="'Titillium Web',-apple-system,Segoe UI,Roboto,sans-serif" font-size="12" fill="#5a7183" text-anchor="end">20</text><line x1="60" y1="197.8" x2="660" y2="197.8" stroke="#e3edf2" stroke-width="1"/><text x="50" y="201.8" font-family="'Titillium Web',-apple-system,Segoe UI,Roboto,sans-serif" font-size="12" fill="#5a7183" text-anchor="end">40</text><line x1="60" y1="146.7" x2="660" y2="146.7" stroke="#e3edf2" stroke-width="1"/><text x="50" y="150.7" font-family="'Titillium Web',-apple-system,Segoe UI,Roboto,sans-serif" font-size="12" fill="#5a7183" text-anchor="end">60</text><line x1="60" y1="95.6" x2="660" y2="95.6" stroke="#e3edf2" stroke-width="1"/><text x="50" y="99.6" font-family="'Titillium Web',-apple-system,Segoe UI,Roboto,sans-serif" font-size="12" fill="#5a7183" text-anchor="end">80</text><text x="60" y="320" font-family="'Titillium Web',-apple-system,Segoe UI,Roboto,sans-serif" font-size="12" fill="#5a7183" text-anchor="middle">0</text><text x="160" y="320" font-family="'Titillium Web',-apple-system,Segoe UI,Roboto,sans-serif" font-size="12" fill="#5a7183" text-anchor="middle">1</text><text x="260" y="320" font-family="'Titillium Web',-apple-system,Segoe UI,Roboto,sans-serif" font-size="12" fill="#5a7183" text-anchor="middle">2</text><text x="360" y="320" font-family="'Titillium Web',-apple-system,Segoe UI,Roboto,sans-serif" font-size="12" fill="#5a7183" text-anchor="middle">3</text><text x="460" y="320" font-family="'Titillium Web',-apple-system,Segoe UI,Roboto,sans-serif" font-size="12" fill="#5a7183" text-anchor="middle">4</text><text x="560" y="320" font-family="'Titillium Web',-apple-system,Segoe UI,Roboto,sans-serif" font-size="12" fill="#5a7183" text-anchor="middle">5</text><text x="660" y="320" font-family="'Titillium Web',-apple-system,Segoe UI,Roboto,sans-serif" font-size="12" fill="#5a7183" text-anchor="middle">6</text><line x1="60" y1="300" x2="660" y2="300" stroke="#9db6c4" stroke-width="1.5"/><line x1="60" y1="70" x2="60" y2="300" stroke="#9db6c4" stroke-width="1.5"/><path d="M 60.0 300.0 L 160.0 287.2 L 260.0 264.2 L 360.0 223.3 L 460.0 167.1 L 560.0 116.0 L 660.0 80.2" fill="none" stroke="#C2622A" stroke-width="3" stroke-dasharray="8 6" stroke-linecap="round" stroke-linejoin="round"/><path d="M 60.0 300.0 L 160.0 223.3 L 260.0 159.4 L 360.0 121.1 L 460.0 98.1 L 560.0 82.8 L 660.0 80.2" fill="none" stroke="#1781A1" stroke-width="3" stroke-linecap="round" stroke-linejoin="round"/><line x1="238" y1="150" x2="252" y2="162" stroke="#1781A1" stroke-width="1.5"/><text x="232" y="146" font-family="'Titillium Web',-apple-system,Segoe UI,Roboto,sans-serif" font-size="13" font-weight="700" fill="#1781A1" text-anchor="end">With enzyme</text><line x1="432" y1="256" x2="450" y2="201" stroke="#C2622A" stroke-width="1.5"/><text x="426" y="262" font-family="'Titillium Web',-apple-system,Segoe UI,Roboto,sans-serif" font-size="13" font-weight="700" fill="#C2622A" text-anchor="end">Without enzyme</text><text x="360.0" y="336" font-family="'Titillium Web',-apple-system,Segoe UI,Roboto,sans-serif" font-size="13" fill="#5a7183" text-anchor="middle">Time</text><text x="20" y="185.0" font-family="'Titillium Web',-apple-system,Segoe UI,Roboto,sans-serif" font-size="13" fill="#5a7183" text-anchor="middle" transform="rotate(-90 20 185.0)">Amount of product formed</text></svg>